<svg class="icon" style="width: 1em;height: 1em;vertical-align: middle;fill: currentColor;overflow: hidden;" viewBox="0 0 1024 1024" version="1.1" xmlns="http://www.w3.org/2000/svg" p-id="10494"><path d="M937.3 479.3c20.8-20.3 28.1-50 19.2-77.6-9-27.6-32.4-47.4-61.1-51.5l-212.5-30.9c-2.5-0.4-4.7-1.9-5.8-4.2l-95-192.5c-12.9-26-38.9-42.2-67.9-42.2-29 0-55.1 16.2-67.9 42.2l-95 192.5c-1.1 2.3-3.3 3.9-5.8 4.2L133 350.2c-28.7 4.2-52.2 23.9-61.1 51.5-9 27.6-1.6 57.4 19.2 77.6l153.8 149.9c1.8 1.8 2.7 4.3 2.2 6.8l-36.3 211.6c-4.9 28.6 6.6 57 30.1 74.1 23.5 17.1 54.1 19.3 79.8 5.8l190.1-99.9c2.3-1.2 4.9-1.2 7.2 0l190.1 99.9c11.2 5.9 23.3 8.8 35.3 8.8 15.6 0 31.2-4.9 44.4-14.5 23.5-17.1 35-45.4 30.1-74.1L781.3 636c-0.4-2.5 0.4-5.1 2.2-6.8l153.8-149.9z m-223 168.2l36.3 211.6c0.5 3.1-0.5 5.7-3.1 7.6-2.6 1.9-5.3 2.1-8.1 0.6l-190.1-99.9c-11-5.8-23.1-8.7-35.2-8.7-12.1 0-24.2 2.9-35.2 8.7l-190.1 99.9c-2.8 1.5-5.6 1.3-8.1-0.6-2.6-1.9-3.6-4.4-3.1-7.6l36.3-211.6c4.2-24.6-3.9-49.6-21.8-67L138.3 430.6c-2.3-2.2-2.9-4.9-2-7.9 1-3 3.1-4.8 6.2-5.3L355 386.5c24.7-3.6 46-19.1 57-41.4l95-192.5c1.4-2.9 3.7-4.3 6.9-4.3s5.5 1.4 6.9 4.3l95 192.5c11 22.4 32.3 37.8 57 41.4l212.5 30.9c3.2 0.5 5.3 2.2 6.2 5.3 1 3 0.3 5.7-2 7.9L736 580.5c-17.8 17.4-26 42.5-21.7 67z" fill="" p-id="10495"></path><path d="M402.213638 491.247294a34.9 34.9 0 1 0 49.355192-49.356915 34.9 34.9 0 1 0-49.355192 49.356915Z" fill="" p-id="10496"></path><path d="M601.2 466.6m-34.9 0a34.9 34.9 0 1 0 69.8 0 34.9 34.9 0 1 0-69.8 0Z" fill="" p-id="10497"></path><path d="M596.4 589.9c-15.9-10-36.9-5.1-46.9 10.8C538 619.1 529.4 625 514 625c-16.3 0-23-7.1-36.5-25.7l-0.3-0.4c-11-15.2-32.3-18.6-47.5-7.6-15.2 11-18.6 32.3-7.6 47.5l0.3 0.4c14.6 20.1 39 53.8 91.6 53.8 58 0 83.6-40.8 93.2-56.2 10-16 5.2-37-10.8-46.9z" fill="" p-id="10498"></path></svg>