<svg class="icon" style="width: 1em;height: 1em;vertical-align: middle;fill: currentColor;overflow: hidden;" viewBox="0 0 1024 1024" version="1.1" xmlns="http://www.w3.org/2000/svg" p-id="18185"><path d="M858.112 218.624c-48.64-48.64-113.664-75.776-182.784-75.776-58.368 0-113.664 18.944-159.232 54.784l-4.096 3.072-4.096-3.072c-45.568-35.84-100.864-55.296-159.744-55.296-69.12 0-134.144 27.136-182.784 75.776-48.64 48.64-75.776 113.664-75.776 182.784 0 69.12 27.136 134.144 75.776 182.784l326.656 326.656c5.12 5.12 11.776 7.68 18.944 7.68 7.168 0 13.824-2.56 18.944-7.68l327.168-326.656c48.64-48.64 75.776-113.664 75.776-182.784 1.024-68.608-26.112-133.632-74.752-182.272z m-509.44-12.288C398.336 206.336 445.44 225.28 481.28 259.072c1.024 1.536 2.56 3.072 4.096 4.608 7.168 7.168 16.384 10.752 26.624 10.752 9.728 0 19.456-4.096 26.112-10.752l0.512-0.512c36.864-36.352 85.504-56.32 137.216-56.32 51.712 0 100.864 19.968 137.216 56.832 36.864 36.864 56.832 85.504 56.832 137.216 0 51.712-19.968 100.864-56.832 137.216L512 838.656l-300.544-300.544c-36.864-36.864-56.832-85.504-56.832-137.216 0-51.712 19.968-100.864 56.832-137.216 36.352-36.864 84.992-57.344 137.216-57.344z" fill="#2C2C2C" p-id="18186"></path><path d="M417.28 614.4c-7.168 0-13.824-3.072-18.944-7.68L261.632 470.016c-10.24-10.752-10.24-27.648 0.512-37.888 5.12-5.12 11.776-7.68 18.944-7.68 7.168 0 13.824 2.56 18.944 7.68L436.224 568.32c10.752 10.752 10.752 27.648 0 38.4-5.12 4.608-11.776 7.68-18.944 7.68z" fill="#2C2C2C" p-id="18187"></path></svg>