<svg class="icon" style="width: 1em;height: 1em;vertical-align: middle;fill: currentColor;overflow: hidden;" viewBox="0 0 1024 1024" version="1.1" xmlns="http://www.w3.org/2000/svg" p-id="5139"><path d="M514.2 854.1c-188 0-340.9-152.9-340.9-340.9s152.9-340.9 340.9-340.9 340.9 152.9 340.9 340.9-152.9 340.9-340.9 340.9z m0-598.8C372 255.3 256.3 371 256.3 513.2S372 771.1 514.2 771.1s257.9-115.7 257.9-257.9-115.7-257.9-257.9-257.9z" fill="#333333" p-id="5140"></path><path d="M888.5 554.7H742.1c-22.9 0-41.5-18.6-41.5-41.5s18.6-41.5 41.5-41.5h146.5c22.9 0 41.5 18.6 41.5 41.5-0.1 22.9-18.6 41.5-41.6 41.5zM288 554.7H141.5c-22.9 0-41.5-18.6-41.5-41.5s18.6-41.5 41.5-41.5H288c22.9 0 41.5 18.6 41.5 41.5s-18.6 41.5-41.5 41.5zM515 327.7c-22.9 0-41.5-18.6-41.5-41.5V139.7c0-22.9 18.6-41.5 41.5-41.5s41.5 18.6 41.5 41.5v146.4c0 23-18.5 41.6-41.5 41.6zM515 928.2c-22.9 0-41.5-18.6-41.5-41.5V740.3c0-22.9 18.6-41.5 41.5-41.5s41.5 18.6 41.5 41.5v146.5c0 22.8-18.5 41.4-41.5 41.4z" fill="#333333" p-id="5141"></path></svg>