<svg class="icon" style="width: 1em;height: 1em;vertical-align: middle;fill: currentColor;overflow: hidden;" viewBox="0 0 1024 1024" version="1.1" xmlns="http://www.w3.org/2000/svg" p-id="3589"><path d="M512 85.333333c188.501333 0 341.333333 154.325333 341.333333 344.746667 0 98.901333-46.677333 210.005333-107.264 277.034667-36.053333 39.850667-101.973333 111.786667-197.888 215.68a48.768 48.768 0 0 1-71.978666-0.341334l-11.52-12.672a30379.605333 30379.605333 0 0 0-173.994667-191.146666C223.018667 645.546667 170.666667 535.168 170.666667 430.08 170.666667 239.658667 323.498667 85.333333 512 85.333333z m0 172.373334c-94.293333 0-170.666667 77.184-170.666667 172.373333s76.373333 172.373333 170.666667 172.373333 170.666667-77.184 170.666667-172.373333-76.373333-172.373333-170.666667-172.373333z" fill="#2c2c2c" p-id="3590"></path></svg>