<svg class="icon" style="width: 1em;height: 1em;vertical-align: middle;fill: currentColor;overflow: hidden;" viewBox="0 0 1024 1024" version="1.1" xmlns="http://www.w3.org/2000/svg" p-id="3581"><path d="M119.5 212h792.3v116.1H119.5z" fill="#5097FF" p-id="3582"></path><path d="M914.7 699.5c-8.3 0-15 6.7-15 15v8.6c0 8.3 6.7 15 15 15s15-6.7 15-15v-8.6c0-8.3-6.7-15-15-15z" fill="#06265B" p-id="3583"></path><path d="M884.7 184.8H146.5c-24.8 0-45 20.2-45 45v564.3c0 24.8 20.2 45 45 45h738.2c24.8 0 45-20.2 45-45v-28.9c0-8.3-6.7-15-15-15s-15 6.7-15 15v28.9c0 8.3-6.7 15-15 15H146.5c-8.3 0-15-6.7-15-15v-451h768.2v261.4c0 8.3 6.7 15 15 15s15-6.7 15-15V229.8c0-24.8-20.2-45-45-45zM131.5 313.1v-83.2c0-8.3 6.7-15 15-15h738.2c8.3 0 15 6.7 15 15v83.2H131.5z" fill="#06265B" p-id="3584"></path><path d="M198.9 264.6m-21.1 0a21.1 21.1 0 1 0 42.2 0 21.1 21.1 0 1 0-42.2 0Z" fill="#FFFFFF" p-id="3585"></path><path d="M263.9 264.6m-21.1 0a21.1 21.1 0 1 0 42.2 0 21.1 21.1 0 1 0-42.2 0Z" fill="#FFFFFF" p-id="3586"></path><path d="M328.9 264.6m-21.1 0a21.1 21.1 0 1 0 42.2 0 21.1 21.1 0 1 0-42.2 0Z" fill="#FFFFFF" p-id="3587"></path><path d="M515.6 413l49.1 99.5 109.8 15.9-79.4 77.5 18.7 109.3-98.2-51.6-98.2 51.6 18.8-109.3-79.5-77.5 109.8-15.9z" fill="#5097FF" p-id="3588"></path><path d="M613.8 730.2c-2.4 0-4.8-0.6-7-1.7l-91.2-48-91.2 48c-5.1 2.7-11.2 2.2-15.8-1.1-4.6-3.4-6.9-9-6-14.7L420 611.1l-73.8-71.9c-4.1-4-5.6-9.9-3.8-15.4 1.8-5.4 6.5-9.4 12.1-10.2l102-14.8 45.6-92.4c2.5-5.1 7.7-8.4 13.5-8.4 5.7 0 10.9 3.2 13.5 8.4l45.6 92.4 102 14.8c5.7 0.8 10.3 4.8 12.1 10.2 1.8 5.4 0.3 11.4-3.8 15.4l-73.8 71.9 17.4 101.6c1 5.6-1.3 11.3-6 14.7-2.6 1.9-5.7 2.8-8.8 2.8zM389 538.9l57.7 56.2c3.5 3.4 5.1 8.4 4.3 13.3l-13.6 79.4 71.3-37.5c4.4-2.3 9.6-2.3 14 0l71.3 37.5-13.6-79.4c-0.8-4.9 0.8-9.8 4.3-13.3l57.7-56.2-79.7-11.6c-4.9-0.7-9.1-3.8-11.3-8.2l-35.6-72.2-35.8 72.2c-2.2 4.4-6.4 7.5-11.3 8.2L389 538.9z" fill="#06265B" p-id="3589"></path></svg>