<svg class="icon" style="width: 1em;height: 1em;vertical-align: middle;fill: currentColor;overflow: hidden;" viewBox="0 0 1024 1024" version="1.1" xmlns="http://www.w3.org/2000/svg" p-id="8569"><path d="M854.5792 503.4496c0-38.6048 24.2688-71.5264 58.4192-84.3776 13.2096-4.9664 21.5552-18.0736 21.5552-32.1536v-117.76c0-70.912-57.4976-128.4608-128.4608-128.4608H217.856c-70.912 0-128.4096 57.4976-128.4096 128.4096v117.0944c0 14.2848 8.6016 27.4944 22.016 32.256 34.9696 12.4416 60.0064 45.7728 60.0064 84.992s-25.0368 72.5504-60.0064 84.992c-13.4656 4.7616-22.016 18.0224-22.016 32.256v117.0944c0 70.912 57.4976 128.4608 128.4608 128.4608h588.2368c70.912 0 128.4608-57.4976 128.4608-128.4608v-117.76c0-14.08-8.3456-27.1872-21.5552-32.1536-34.1504-12.9024-58.4704-45.824-58.4704-84.4288z" fill="#FF5D50" p-id="8570"></path><path d="M363.2128 374.016m-90.2144 0a90.2144 90.2144 0 1 0 180.4288 0 90.2144 90.2144 0 1 0-180.4288 0Z" fill="#FFDF99" p-id="8571"></path><path d="M656.5376 632.832m-90.2144 0a90.2144 90.2144 0 1 0 180.4288 0 90.2144 90.2144 0 1 0-180.4288 0Z" fill="#FFDF99" p-id="8572"></path><path d="M360.4992 694.6304c-12.1344 0-24.2688-4.7616-33.3312-14.2336a45.99296 45.99296 0 0 1 1.4848-65.1264l296.0896-283.0848c18.3808-17.5616 47.5648-16.9472 65.1264 1.4848a45.99296 45.99296 0 0 1-1.4848 65.1264l-296.0896 283.0848a45.9776 45.9776 0 0 1-31.7952 12.7488z" fill="#FFDF99" p-id="8573"></path></svg>